# xmcd
#
# Track frame offsets:
#	150
#	20643
#	34039
#	47312
#	60482
#	75420
#	89310
#	105469
#	122040
#	133368
#	148205
#	162590
#	173502
#	185668
#	198662
#	208563
#	220296
#	233544
#	248776
#	261044
#	277615
#	291971
#	306911
#	320165
#	333646
#
# Disc length: 4634 seconds
#
# Revision: 0
# Processed by: cddbd v1.5.2PL0 Copyright (c) Steve Scherf et al.
# Submitted via: EasyCDDAExtractor 16.0.9.1
#
DISCID=70121819
DTITLE=María Dolores Pradera - Orígenes 
DYEAR=2014
DGENRE=Canción Melódica
TTITLE0=Alhambra y tú
TTITLE1=Mea culpa
TTITLE2=Tengo un pozo en el alma
TTITLE3=Te tengo rabia
TTITLE4=Que difícil eres
TTITLE5=Guitarras, lloren guitarras
TTITLE6=Y ya
TTITLE7=Noche de ronda
TTITLE8=El organillero
TTITLE9=Añoranza
TTITLE10=Ven acá
TTITLE11=Ojos sin luz 
TTITLE12=La fuente
TTITLE13=Llévame
TTITLE14=Mientras tú duermes
TTITLE15=Maldito abismo
TTITLE16=Amarga Navidad
TTITLE17=Te agradezco el consejo
TTITLE18=Grítenme piedras del campo 
TTITLE19=Tú me acostumbraste
TTITLE20=Y... 
TTITLE21=Me tendrás
TTITLE22=Tuve celos
TTITLE23=La flor de la canela
TTITLE24=Historia de mi vida
EXTD=
EXTT0=
EXTT1=
EXTT2=
EXTT3=
EXTT4=
EXTT5=
EXTT6=
EXTT7=
EXTT8=
EXTT9=
EXTT10=
EXTT11=
EXTT12=
EXTT13=
EXTT14=
EXTT15=
EXTT16=
EXTT17=
EXTT18=
EXTT19=
EXTT20=
EXTT21=
EXTT22=
EXTT23=
EXTT24=
PLAYORDER=
